<?xml version="1.0" encoding="UTF-8" standalone="no"?>
<!DOCTYPE svg PUBLIC "-//W3C//DTD SVG 1.1//EN"
 "http://www.w3.org/Graphics/SVG/1.1/DTD/svg11.dtd">
<!-- Generated by graphviz version 2.42.4 (0)
 -->
<!-- Title: G Pages: 1 -->
<svg width="901pt" height="533pt"
 viewBox="0.00 0.00 901.44 533.44" xmlns="http://www.w3.org/2000/svg" xmlns:xlink="http://www.w3.org/1999/xlink">
<g id="graph0" class="graph" transform="scale(1 1) rotate(0) translate(18.72 514.72)">
<title>G</title>
<polygon fill="white" stroke="transparent" points="-18.72,18.72 -18.72,-514.72 882.72,-514.72 882.72,18.72 -18.72,18.72"/>
<text text-anchor="middle" x="225.5" y="-479.2" font-family="DejaVu Sans" font-size="16.00" fill="#102a43">D01 | RelayX AI control plane &amp; execution boundaries</text>
<g id="clust1" class="cluster">
<title>cluster_control</title>
<path fill="#f6fafe" stroke="#8bb2ce" d="M20,-164C20,-164 560,-164 560,-164 566,-164 572,-170 572,-176 572,-176 572,-316 572,-316 572,-322 566,-328 560,-328 560,-328 20,-328 20,-328 14,-328 8,-322 8,-316 8,-316 8,-176 8,-176 8,-170 14,-164 20,-164"/>
<text text-anchor="middle" x="157.5" y="-311.2" font-family="DejaVu Sans" font-size="16.00" fill="#102a43">RELAYX TRUSTED CONTROL PLANE</text>
</g>
<!-- user -->
<g id="node1" class="node">
<title>user</title>
<path fill="#e1f0ff" stroke="#498cd0" stroke-width="1.3" d="M597.5,-470C597.5,-470 382.5,-470 382.5,-470 376.5,-470 370.5,-464 370.5,-458 370.5,-458 370.5,-446 370.5,-446 370.5,-440 376.5,-434 382.5,-434 382.5,-434 597.5,-434 597.5,-434 603.5,-434 609.5,-440 609.5,-446 609.5,-446 609.5,-458 609.5,-458 609.5,-464 603.5,-470 597.5,-470"/>
<text text-anchor="middle" x="490" y="-455.2" font-family="DejaVu Sans" font-size="11.00">Human / project owner</text>
<text text-anchor="middle" x="490" y="-443.2" font-family="DejaVu Sans" font-size="11.00">Goals · $0 limit · approvals · pause/stop</text>
</g>
<!-- ui -->
<g id="node2" class="node">
<title>ui</title>
<path fill="#f1f5f9" stroke="#bac9d6" stroke-width="1.3" d="M601.5,-393C601.5,-393 378.5,-393 378.5,-393 372.5,-393 366.5,-387 366.5,-381 366.5,-381 366.5,-369 366.5,-369 366.5,-363 372.5,-357 378.5,-357 378.5,-357 601.5,-357 601.5,-357 607.5,-357 613.5,-363 613.5,-369 613.5,-369 613.5,-381 613.5,-381 613.5,-387 607.5,-393 601.5,-393"/>
<text text-anchor="middle" x="490" y="-378.2" font-family="DejaVu Sans" font-size="11.00">RelayX desktop UI</text>
<text text-anchor="middle" x="490" y="-366.2" font-family="DejaVu Sans" font-size="11.00">Tasks · Pair View · Sessions · Governance</text>
</g>
<!-- user&#45;&gt;ui -->
<g id="edge1" class="edge">
<title>user&#45;&gt;ui</title>
<path fill="none" stroke="#718096" stroke-width="1.2" d="M490,-433.75C490,-433.75 490,-400.12 490,-400.12"/>
<polygon fill="#718096" stroke="#718096" stroke-width="1.2" points="492.45,-400.12 490,-393.12 487.55,-400.12 492.45,-400.12"/>
</g>
<!-- policy -->
<g id="node3" class="node">
<title>policy</title>
<path fill="#ffe8d6" stroke="#d69e65" stroke-width="1.3" d="M378,-294C378,-294 218,-294 218,-294 212,-294 206,-288 206,-282 206,-282 206,-270 206,-270 206,-264 212,-258 218,-258 218,-258 378,-258 378,-258 384,-258 390,-264 390,-270 390,-270 390,-282 390,-282 390,-288 384,-294 378,-294"/>
<text text-anchor="middle" x="298" y="-279.2" font-family="DejaVu Sans" font-size="11.00">Policy Engine</text>
<text text-anchor="middle" x="298" y="-267.2" font-family="DejaVu Sans" font-size="11.00">Authority / zero&#45;cost / privacy</text>
</g>
<!-- ui&#45;&gt;policy -->
<g id="edge2" class="edge">
<title>ui&#45;&gt;policy</title>
<path fill="none" stroke="#718096" stroke-width="1.2" d="M378.25,-356.84C378.25,-356.84 378.25,-301.04 378.25,-301.04"/>
<polygon fill="#718096" stroke="#718096" stroke-width="1.2" points="380.7,-301.04 378.25,-294.04 375.8,-301.04 380.7,-301.04"/>
</g>
<!-- scheduler -->
<g id="node4" class="node">
<title>scheduler</title>
<path fill="#f1f5f9" stroke="#bac9d6" stroke-width="1.3" d="M469.5,-208C469.5,-208 330.5,-208 330.5,-208 324.5,-208 318.5,-202 318.5,-196 318.5,-196 318.5,-184 318.5,-184 318.5,-178 324.5,-172 330.5,-172 330.5,-172 469.5,-172 469.5,-172 475.5,-172 481.5,-178 481.5,-184 481.5,-184 481.5,-196 481.5,-196 481.5,-202 475.5,-208 469.5,-208"/>
<text text-anchor="middle" x="400" y="-193.2" font-family="DejaVu Sans" font-size="11.00">Task Scheduler</text>
<text text-anchor="middle" x="400" y="-181.2" font-family="DejaVu Sans" font-size="11.00">DAG · locks · atomic claim</text>
</g>
<!-- ui&#45;&gt;scheduler -->
<g id="edge3" class="edge">
<title>ui&#45;&gt;scheduler</title>
<path fill="none" stroke="#718096" stroke-width="1.2" d="M403,-356.92C403,-356.92 403,-215.15 403,-215.15"/>
<polygon fill="#718096" stroke="#718096" stroke-width="1.2" points="405.45,-215.15 403,-208.15 400.55,-215.15 405.45,-215.15"/>
</g>
<!-- ledger -->
<g id="node6" class="node">
<title>ledger</title>
<path fill="#f1f5f9" stroke="#bac9d6" stroke-width="1.3" d="M552,-294C552,-294 428,-294 428,-294 422,-294 416,-288 416,-282 416,-282 416,-270 416,-270 416,-264 422,-258 428,-258 428,-258 552,-258 552,-258 558,-258 564,-264 564,-270 564,-270 564,-282 564,-282 564,-288 558,-294 552,-294"/>
<text text-anchor="middle" x="490" y="-279.2" font-family="DejaVu Sans" font-size="11.00">Durable Store</text>
<text text-anchor="middle" x="490" y="-267.2" font-family="DejaVu Sans" font-size="11.00">State · evidence · audit</text>
</g>
<!-- ui&#45;&gt;ledger -->
<g id="edge4" class="edge">
<title>ui&#45;&gt;ledger</title>
<path fill="none" stroke="#718096" stroke-width="1.2" d="M490,-356.84C490,-356.84 490,-301.04 490,-301.04"/>
<polygon fill="#718096" stroke="#718096" stroke-width="1.2" points="492.45,-301.04 490,-294.04 487.55,-301.04 492.45,-301.04"/>
</g>
<!-- policy&#45;&gt;scheduler -->
<g id="edge8" class="edge">
<title>policy&#45;&gt;scheduler</title>
<path fill="none" stroke="#718096" stroke-width="1.2" d="M342.33,-257.76C342.33,-257.76 342.33,-215.21 342.33,-215.21"/>
<polygon fill="#718096" stroke="#718096" stroke-width="1.2" points="344.78,-215.21 342.33,-208.21 339.88,-215.21 344.78,-215.21"/>
<text text-anchor="middle" x="320.5" y="-230.8" font-family="DejaVu Sans" font-size="9.00">permit</text>
</g>
<!-- server -->
<g id="node9" class="node">
<title>server</title>
<path fill="#f0f4f8" stroke="#bac9d6" stroke-width="1.3" d="M678,-122C678,-122 516,-122 516,-122 510,-122 504,-116 504,-110 504,-110 504,-98 504,-98 504,-92 510,-86 516,-86 516,-86 678,-86 678,-86 684,-86 690,-92 690,-98 690,-98 690,-110 690,-110 690,-116 684,-122 678,-122"/>
<text text-anchor="middle" x="597" y="-107.2" font-family="DejaVu Sans" font-size="11.00">Managed OpenCode Server</text>
<text text-anchor="middle" x="597" y="-95.2" font-family="DejaVu Sans" font-size="11.00">Exact sessions · event stream</text>
</g>
<!-- scheduler&#45;&gt;server -->
<g id="edge10" class="edge">
<title>scheduler&#45;&gt;server</title>
<path fill="none" stroke="#718096" stroke-width="1.2" d="M481.67,-181C504.89,-181 524,-181 524,-181 524,-181 524,-129.25 524,-129.25"/>
<polygon fill="#718096" stroke="#718096" stroke-width="1.2" points="526.45,-129.25 524,-122.25 521.55,-129.25 526.45,-129.25"/>
<text text-anchor="middle" x="588" y="-144.8" font-family="DejaVu Sans" font-size="9.00">single policy&#45;gated send</text>
</g>
<!-- registry -->
<g id="node5" class="node">
<title>registry</title>
<path fill="#f1f5f9" stroke="#bac9d6" stroke-width="1.3" d="M167.5,-294C167.5,-294 28.5,-294 28.5,-294 22.5,-294 16.5,-288 16.5,-282 16.5,-282 16.5,-270 16.5,-270 16.5,-264 22.5,-258 28.5,-258 28.5,-258 167.5,-258 167.5,-258 173.5,-258 179.5,-264 179.5,-270 179.5,-270 179.5,-282 179.5,-282 179.5,-288 173.5,-294 167.5,-294"/>
<text text-anchor="middle" x="98" y="-279.2" font-family="DejaVu Sans" font-size="11.00">Model Intelligence</text>
<text text-anchor="middle" x="98" y="-267.2" font-family="DejaVu Sans" font-size="11.00">Hunter · eligibility · ranker</text>
</g>
<!-- registry&#45;&gt;scheduler -->
<g id="edge9" class="edge">
<title>registry&#45;&gt;scheduler</title>
<path fill="none" stroke="#718096" stroke-width="1.2" d="M98,-257.76C98,-232.52 98,-190 98,-190 98,-190 311.27,-190 311.27,-190"/>
<polygon fill="#718096" stroke="#718096" stroke-width="1.2" points="311.27,-192.45 318.27,-190 311.27,-187.55 311.27,-192.45"/>
<text text-anchor="middle" x="176.5" y="-230.8" font-family="DejaVu Sans" font-size="9.00">qualified route</text>
</g>
<!-- sup -->
<g id="node7" class="node">
<title>sup</title>
<path fill="#edf2ff" stroke="#9faeed" stroke-width="1.3" d="M769,-294C769,-294 663,-294 663,-294 657,-294 651,-288 651,-282 651,-282 651,-270 651,-270 651,-264 657,-258 663,-258 663,-258 769,-258 769,-258 775,-258 781,-264 781,-270 781,-270 781,-282 781,-282 781,-288 775,-294 769,-294"/>
<text text-anchor="middle" x="716" y="-279.2" font-family="DejaVu Sans" font-size="11.00">Supervisor AI</text>
<text text-anchor="middle" x="716" y="-267.2" font-family="DejaVu Sans" font-size="11.00">Proposes / observes</text>
</g>
<!-- ledger&#45;&gt;sup -->
<g id="edge15" class="edge">
<title>ledger&#45;&gt;sup</title>
<path fill="none" stroke="#718096" stroke-width="1.2" d="M564,-285C564,-285 643.96,-285 643.96,-285"/>
<polygon fill="#718096" stroke="#718096" stroke-width="1.2" points="643.96,-287.45 650.96,-285 643.96,-282.55 643.96,-287.45"/>
</g>
<!-- planner -->
<g id="node8" class="node">
<title>planner</title>
<path fill="#d8f2e6" stroke="#58a484" stroke-width="1.3" d="M730,-208C730,-208 592,-208 592,-208 586,-208 580,-202 580,-196 580,-196 580,-184 580,-184 580,-178 586,-172 592,-172 592,-172 730,-172 730,-172 736,-172 742,-178 742,-184 742,-184 742,-196 742,-196 742,-202 736,-208 730,-208"/>
<text text-anchor="middle" x="661" y="-193.2" font-family="DejaVu Sans" font-size="11.00">In&#45;house Planner AI</text>
<text text-anchor="middle" x="661" y="-181.2" font-family="DejaVu Sans" font-size="11.00">Plans / reviews / recovery</text>
</g>
<!-- ledger&#45;&gt;planner -->
<g id="edge14" class="edge">
<title>ledger&#45;&gt;planner</title>
<path fill="none" stroke="#718096" stroke-width="1.2" d="M564.06,-267C579.48,-267 591.17,-267 591.17,-267 591.17,-267 591.17,-215.25 591.17,-215.25"/>
<polygon fill="#718096" stroke="#718096" stroke-width="1.2" points="593.62,-215.25 591.17,-208.25 588.72,-215.25 593.62,-215.25"/>
<text text-anchor="middle" x="522" y="-230.8" font-family="DejaVu Sans" font-size="9.00">review packet</text>
</g>
<!-- sup&#45;&gt;scheduler -->
<g id="edge6" class="edge">
<title>sup&#45;&gt;scheduler</title>
<path fill="none" stroke="#718096" stroke-width="1.2" stroke-dasharray="5,2" d="M650.74,-276C612.64,-276 572,-276 572,-276 572,-276 572,-199 572,-199 572,-199 488.72,-199 488.72,-199"/>
<polygon fill="#718096" stroke="#718096" stroke-width="1.2" points="488.72,-196.55 481.72,-199 488.72,-201.45 488.72,-196.55"/>
<text text-anchor="middle" x="670.5" y="-230.8" font-family="DejaVu Sans" font-size="9.00">proposal</text>
</g>
<!-- sup&#45;&gt;planner -->
<g id="edge5" class="edge">
<title>sup&#45;&gt;planner</title>
<path fill="none" stroke="#718096" stroke-width="1.2" d="M696.5,-257.76C696.5,-257.76 696.5,-215.21 696.5,-215.21"/>
<polygon fill="#718096" stroke="#718096" stroke-width="1.2" points="698.95,-215.21 696.5,-208.21 694.05,-215.21 698.95,-215.21"/>
<text text-anchor="middle" x="738" y="-230.8" font-family="DejaVu Sans" font-size="9.00">consult</text>
</g>
<!-- planner&#45;&gt;policy -->
<g id="edge7" class="edge">
<title>planner&#45;&gt;policy</title>
<path fill="none" stroke="#718096" stroke-width="1.2" d="M602.33,-208.49C602.33,-220.14 602.33,-233 602.33,-233 602.33,-233 366.17,-233 366.17,-233 366.17,-233 366.17,-250.51 366.17,-250.51"/>
<polygon fill="#718096" stroke="#718096" stroke-width="1.2" points="363.72,-250.51 366.17,-257.51 368.62,-250.51 363.72,-250.51"/>
<text text-anchor="middle" x="416.5" y="-230.8" font-family="DejaVu Sans" font-size="9.00">authorize intent</text>
</g>
<!-- planner&#45;&gt;scheduler -->
<g id="edge16" class="edge">
<title>planner&#45;&gt;scheduler</title>
<path fill="none" stroke="#718096" stroke-width="1.2" d="M579.85,-190C579.85,-190 488.55,-190 488.55,-190"/>
<polygon fill="#718096" stroke="#718096" stroke-width="1.2" points="488.55,-187.55 481.55,-190 488.55,-192.45 488.55,-187.55"/>
</g>
<!-- server&#45;&gt;ledger -->
<g id="edge13" class="edge">
<title>server&#45;&gt;ledger</title>
<path fill="none" stroke="#718096" stroke-width="1.2" d="M544,-122.08C544,-122.08 544,-250.9 544,-250.9"/>
<polygon fill="#718096" stroke="#718096" stroke-width="1.2" points="541.55,-250.9 544,-257.9 546.45,-250.9 541.55,-250.9"/>
<text text-anchor="middle" x="829" y="-187.8" font-family="DejaVu Sans" font-size="9.00">observed result</text>
</g>
<!-- worker -->
<g id="node10" class="node">
<title>worker</title>
<path fill="#dff3e5" stroke="#7ebd8f" stroke-width="1.3" d="M665,-36C665,-36 529,-36 529,-36 523,-36 517,-30 517,-24 517,-24 517,-12 517,-12 517,-6 523,0 529,0 529,0 665,0 665,0 671,0 677,-6 677,-12 677,-12 677,-24 677,-24 677,-30 671,-36 665,-36"/>
<text text-anchor="middle" x="597" y="-21.2" font-family="DejaVu Sans" font-size="11.00">Worker session(s)</text>
<text text-anchor="middle" x="597" y="-9.2" font-family="DejaVu Sans" font-size="11.00">Scoped tools &amp; worktrees</text>
</g>
<!-- server&#45;&gt;worker -->
<g id="edge11" class="edge">
<title>server&#45;&gt;worker</title>
<path fill="none" stroke="#718096" stroke-width="1.2" d="M570.33,-85.76C570.33,-85.76 570.33,-43.21 570.33,-43.21"/>
<polygon fill="#718096" stroke="#718096" stroke-width="1.2" points="572.78,-43.21 570.33,-36.21 567.88,-43.21 572.78,-43.21"/>
</g>
<!-- worker&#45;&gt;server -->
<g id="edge12" class="edge">
<title>worker&#45;&gt;server</title>
<path fill="none" stroke="#718096" stroke-width="1.2" d="M623.67,-36.24C623.67,-36.24 623.67,-78.79 623.67,-78.79"/>
<polygon fill="#718096" stroke="#718096" stroke-width="1.2" points="621.22,-78.79 623.67,-85.79 626.12,-78.79 621.22,-78.79"/>
<text text-anchor="middle" x="679" y="-58.8" font-family="DejaVu Sans" font-size="9.00">evidence/events</text>
</g>
</g>
</svg>
